Coordinates
version=1
nRows=38
nColumns=12
inDegrees=yes

Units are S.I. units (second, meters, Newtons, ...)
Angles are in degrees

endheader
time	SC_y	SC_z	SC_x	AC_y	AC_z	AC_x	GH_y	GH_z	GH_yy	EL_x	PS_y
       0.0              -22.95          20.71          26.04           47.8         -19.06         -14.05          158.2          61.57           97.3          87.23          48.14
  0.008027              -22.95          20.71          26.05           47.8         -19.06         -14.05          158.1          61.56          97.29          87.23          48.15
   0.01605              -22.96          20.71          26.05           47.8         -19.06         -14.05          158.1          61.56          97.27          87.24          48.17
   0.02408              -22.96          20.71          26.05           47.8         -19.06         -14.04          158.0          61.56          97.26          87.24          48.18
   0.03211              -22.97          20.72          26.05          47.81         -19.06         -14.04          158.0          61.55          97.25          87.25           48.2
   0.04014              -22.98          20.72          26.05          47.81         -19.06         -14.04          157.9          61.55          97.24          87.25          48.22
   0.04816              -22.98          20.72          26.05          47.81         -19.06         -14.03          157.8          61.55          97.22          87.26          48.24
   0.05619              -22.99          20.72          26.05          47.82         -19.06         -14.03          157.8          61.54          97.21          87.26          48.26
   0.06422               -23.0          20.72          26.05          47.82         -19.06         -14.03          157.7          61.54          97.19          87.27          48.28
   0.07224               -23.0          20.73          26.06          47.82         -19.06         -14.02          157.6          61.53          97.17          87.28          48.31
   0.08027              -23.01          20.73          26.06          47.83         -19.06         -14.02          157.5          61.52          97.15          87.28          48.33
    0.0883              -23.02          20.73          26.06          47.83         -19.06         -14.01          157.5          61.52          97.13          87.29          48.36
   0.09632              -23.03          20.73          26.06          47.84         -19.05         -14.01          157.4          61.51          97.11           87.3          48.39
    0.1044              -23.04          20.74          26.06          47.84         -19.05          -14.0          157.3           61.5          97.09          87.31          48.43
    0.1124              -23.05          20.74          26.07          47.85         -19.05         -13.99          157.1           61.5          97.06          87.32          48.46
    0.1204              -23.06          20.74          26.07          47.86         -19.05         -13.99          157.0          61.49          97.04          87.33           48.5
    0.1284              -23.08          20.75          26.07          47.86         -19.05         -13.98          156.9          61.48          97.01          87.35          48.54
    0.1365              -23.09          20.75          26.08          47.87         -19.05         -13.97          156.7          61.47          96.97          87.36          48.59
    0.1445              -23.11          20.76          26.08          47.88         -19.04         -13.96          156.6          61.46          96.94          87.37          48.64
    0.1525              -23.12          20.76          26.08          47.89         -19.04         -13.95          156.4          61.45           96.9          87.39          48.69
    0.1605              -23.14          20.77          26.09           47.9         -19.04         -13.94          156.2          61.43          96.85          87.41          48.75
    0.1686              -23.16          20.78          26.09          47.91         -19.04         -13.93          156.0          61.42          96.81          87.43          48.82
    0.1766              -23.19          20.78           26.1          47.92         -19.04         -13.92          155.8           61.4          96.75          87.45          48.89
    0.1846              -23.21          20.79           26.1          47.93         -19.03          -13.9          155.5          61.38           96.7          87.47          48.97
    0.1926              -23.24           20.8          26.11          47.95         -19.03         -13.88          155.2          61.36          96.63           87.5          49.06
    0.2007              -23.27          20.81          26.12          47.96         -19.02         -13.87          154.9          61.34          96.56          87.53          49.16
    0.2087              -23.31          20.82          26.12          47.98         -19.02         -13.85          154.5          61.32          96.48          87.56          49.27
    0.2167              -23.34          20.83          26.13           48.0         -19.02         -13.82          154.1          61.29          96.39           87.6           49.4
    0.2248              -23.39          20.85          26.14          48.03         -19.01          -13.8          153.7          61.26          96.29          87.64          49.54
    0.2328              -23.44          20.86          26.15          48.05          -19.0         -13.77          153.2          61.22          96.17          87.69           49.7
    0.2408               -23.5          20.88          26.17          48.08          -19.0         -13.74          152.6          61.18          96.04          87.75          49.88
    0.2488              -23.56           20.9          26.18          48.12         -18.99          -13.7          151.9          61.13          95.89          87.81          50.09
    0.2569              -23.64          20.93           26.2          48.16         -18.98         -13.65          151.1          61.08          95.71          87.88          50.34
    0.2649              -23.73          20.96          26.22          48.21         -18.97          -13.6          150.2          61.02          95.51          87.97          50.62
    0.2729              -23.83          20.99          26.24          48.26         -18.96         -13.54          149.1          60.94          95.27          88.07          50.95
    0.2809              -23.96          21.03          26.27          48.32         -18.94         -13.47          147.9          60.86          94.98          88.18          51.34
     0.289               -24.1          21.07           26.3           48.4         -18.92         -13.39          146.4          60.76          94.65          88.32          51.81
     0.297              -24.28          21.13          26.34          48.49          -18.9         -13.28          144.6          60.63          94.25          88.49          52.36
